<svg width="346" height="74" viewBox="0 0 346 74" fill="none" xmlns="http://www.w3.org/2000/svg">
<path d="M37.3144 74C30.4923 74 24.2216 72.4219 18.5021 69.2656C12.8516 66.1094 8.33802 61.7181 4.96147 56.0918C1.65382 50.3968 0 44.0158 0 36.9485C0 29.8813 1.65382 23.5345 4.96147 17.9082C8.33802 12.2819 12.8516 7.89059 18.5021 4.73435C24.2216 1.57812 30.4923 0 37.3144 0C44.1364 0 50.3727 1.57812 56.0232 4.73435C61.7427 7.89059 66.2218 12.2819 69.4605 17.9082C72.7682 23.5345 74.422 29.8813 74.422 36.9485C74.422 44.0158 72.7682 50.3968 69.4605 56.0918C66.1529 61.7181 61.6738 66.1094 56.0232 69.2656C50.3727 72.4219 44.1364 74 37.3144 74ZM37.3144 57.9444C43.1027 57.9444 47.7197 56.0232 51.1651 52.1808C54.6795 48.3384 56.4367 43.261 56.4367 36.9485C56.4367 30.5675 54.6795 25.49 51.1651 21.7163C47.7197 17.8739 43.1027 15.9527 37.3144 15.9527C31.4571 15.9527 26.7712 17.8396 23.2569 21.6133C19.8114 25.3871 18.0887 30.4988 18.0887 36.9485C18.0887 43.3296 19.8114 48.4414 23.2569 52.2837C26.7712 56.0575 31.4571 57.9444 37.3144 57.9444Z" fill="white"/>
<path d="M136.454 1.02921V15.1293H117.228V73.2796H99.5531V15.1293H80.3275V1.02921H136.454Z" fill="white"/>
<path d="M163 1.02921V73.2796H145.325V1.02921H163Z" fill="white"/>
<path d="M197.189 15.0162C195.912 15.0162 194.753 14.7214 193.713 14.1317C192.673 13.529 191.85 12.6969 191.244 11.6356C190.652 10.5611 190.355 9.34909 190.355 7.99947C190.355 6.64985 190.652 5.44436 191.244 4.383C191.85 3.30854 192.673 2.47649 193.713 1.88685C194.753 1.28411 195.912 0.982736 197.189 0.982736C198.479 0.982736 199.644 1.28411 200.684 1.88685C201.725 2.47649 202.541 3.30854 203.133 4.383C203.726 5.44436 204.022 6.64985 204.022 7.99947C204.022 9.34909 203.726 10.5611 203.133 11.6356C202.541 12.6969 201.725 13.529 200.684 14.1317C199.644 14.7214 198.479 15.0162 197.189 15.0162ZM197.189 13.8173C198.216 13.8173 199.137 13.5814 199.954 13.1097C200.77 12.638 201.415 11.9632 201.889 11.0853C202.363 10.1942 202.6 9.16565 202.6 7.99947C202.6 6.83329 202.363 5.81124 201.889 4.93333C201.415 4.05542 200.77 3.38061 199.954 2.9089C199.137 2.43718 198.216 2.20133 197.189 2.20133C196.162 2.20133 195.24 2.43718 194.424 2.9089C193.608 3.38061 192.962 4.05542 192.488 4.93333C192.014 5.81124 191.777 6.83329 191.777 7.99947C191.777 9.16565 192.014 10.1942 192.488 11.0853C192.962 11.9632 193.608 12.638 194.424 13.1097C195.24 13.5814 196.162 13.8173 197.189 13.8173Z" fill="white"/>
<path d="M207.914 6.52537C208.27 5.77849 208.816 5.16919 209.554 4.69748C210.304 4.22576 211.186 3.98991 212.2 3.98991C213.187 3.98991 214.07 4.21921 214.846 4.67782C215.623 5.12333 216.229 5.76538 216.663 6.60398C217.111 7.42948 217.335 8.39256 217.335 9.49323C217.335 10.5939 217.111 11.5635 216.663 12.4021C216.229 13.2407 215.617 13.8893 214.827 14.3479C214.05 14.8066 213.174 15.0359 212.2 15.0359C211.173 15.0359 210.284 14.8066 209.534 14.3479C208.797 13.8762 208.257 13.2669 207.914 12.5201V14.8786H206.552V0.334131H207.914V6.52537ZM215.933 9.49323C215.933 8.60221 215.755 7.83568 215.399 7.19363C215.057 6.53847 214.583 6.04055 213.977 5.69987C213.372 5.35919 212.687 5.18885 211.924 5.18885C211.186 5.18885 210.508 5.36574 209.889 5.71952C209.284 6.07331 208.803 6.57778 208.448 7.23294C208.092 7.88809 207.914 8.64808 207.914 9.51288C207.914 10.3777 208.092 11.1377 208.448 11.7928C208.803 12.448 209.284 12.9525 209.889 13.3062C210.508 13.66 211.186 13.8369 211.924 13.8369C212.687 13.8369 213.372 13.6666 213.977 13.3259C214.583 12.9721 215.057 12.4676 215.399 11.8125C215.755 11.1442 215.933 10.3711 215.933 9.49323Z" fill="white"/>
<path d="M223.592 15.0359C222.354 15.0359 221.34 14.7541 220.55 14.1907C219.773 13.6142 219.339 12.8345 219.247 11.8518H220.669C220.734 12.4545 221.018 12.9459 221.518 13.3259C222.031 13.6928 222.716 13.8762 223.572 13.8762C224.322 13.8762 224.908 13.6993 225.329 13.3456C225.764 12.9918 225.981 12.5528 225.981 12.0287C225.981 11.6618 225.863 11.3604 225.626 11.1246C225.389 10.8887 225.086 10.7053 224.717 10.5742C224.362 10.4301 223.875 10.2794 223.256 10.1222C222.453 9.91253 221.801 9.70288 221.301 9.49323C220.8 9.28358 220.372 8.97565 220.017 8.56946C219.675 8.15016 219.503 7.59327 219.503 6.89881C219.503 6.37468 219.661 5.88986 219.977 5.44436C220.293 4.99885 220.741 4.64506 221.32 4.383C221.9 4.12094 222.558 3.98991 223.295 3.98991C224.454 3.98991 225.389 4.28473 226.1 4.87437C226.811 5.45091 227.192 6.2502 227.245 7.27225H225.863C225.823 6.64329 225.573 6.13882 225.112 5.75883C224.665 5.36574 224.046 5.16919 223.256 5.16919C222.558 5.16919 221.992 5.33298 221.557 5.66056C221.123 5.98814 220.906 6.39433 220.906 6.87915C220.906 7.29845 221.031 7.64568 221.281 7.92085C221.544 8.18291 221.867 8.39256 222.249 8.5498C222.63 8.69394 223.144 8.85773 223.789 9.04117C224.566 9.25082 225.185 9.45392 225.645 9.65047C226.106 9.84701 226.501 10.1353 226.83 10.5153C227.16 10.8953 227.331 11.3997 227.344 12.0287C227.344 12.6052 227.186 13.1228 226.87 13.5814C226.554 14.0269 226.113 14.3807 225.547 14.6428C224.981 14.9048 224.329 15.0359 223.592 15.0359Z" fill="white"/>
<path d="M239.702 8.96255C239.702 9.43426 239.689 9.7946 239.663 10.0436H230.716C230.756 10.856 230.953 11.5504 231.309 12.127C231.664 12.7035 232.132 13.1425 232.711 13.4438C233.29 13.7321 233.922 13.8762 234.607 13.8762C235.502 13.8762 236.253 13.66 236.858 13.2276C237.477 12.7952 237.885 12.2121 238.083 11.4784H239.544C239.281 12.5266 238.715 13.3849 237.846 14.0531C236.99 14.7083 235.911 15.0359 234.607 15.0359C233.593 15.0359 232.685 14.8131 231.882 14.3676C231.078 13.909 230.447 13.2669 229.986 12.4414C229.538 11.6028 229.314 10.6266 229.314 9.51288C229.314 8.39912 229.538 7.42293 229.986 6.58433C230.433 5.74573 231.059 5.10367 231.862 4.65817C232.665 4.21266 233.58 3.98991 234.607 3.98991C235.634 3.98991 236.529 4.21266 237.293 4.65817C238.07 5.10367 238.662 5.70642 239.07 6.4664C239.492 7.21328 239.702 8.04533 239.702 8.96255ZM238.3 8.92324C238.313 8.12395 238.149 7.44259 237.806 6.87915C237.477 6.31572 237.023 5.88986 236.444 5.60159C235.864 5.31332 235.232 5.16919 234.548 5.16919C233.521 5.16919 232.645 5.49677 231.921 6.15193C231.197 6.80708 230.795 7.73085 230.716 8.92324H238.3Z" fill="white"/>
<path d="M243.614 6.05365C243.917 5.38539 244.378 4.86782 244.997 4.50093C245.629 4.13404 246.399 3.9506 247.307 3.9506V5.38539H246.932C245.931 5.38539 245.128 5.65401 244.523 6.19124C243.917 6.72846 243.614 7.62603 243.614 8.88393V14.8786H242.232V4.14715H243.614V6.05365Z" fill="white"/>
<path d="M253.218 13.5421L256.852 4.14715H258.314L253.989 14.8786H252.428L248.103 4.14715H249.584L253.218 13.5421Z" fill="white"/>
<path d="M259.555 9.49323C259.555 8.39256 259.773 7.42948 260.207 6.60398C260.655 5.76538 261.267 5.12333 262.044 4.67782C262.834 4.21921 263.723 3.98991 264.71 3.98991C265.737 3.98991 266.619 4.22576 267.356 4.69748C268.107 5.16919 268.647 5.77193 268.976 6.50571V4.14715H270.358V14.8786H268.976V12.5004C268.634 13.2342 268.087 13.8435 267.337 14.3283C266.599 14.8 265.717 15.0359 264.69 15.0359C263.716 15.0359 262.834 14.8066 262.044 14.3479C261.267 13.8893 260.655 13.2407 260.207 12.4021C259.773 11.5635 259.555 10.5939 259.555 9.49323ZM268.976 9.51288C268.976 8.64808 268.798 7.88809 268.443 7.23294C268.087 6.57778 267.6 6.07331 266.981 5.71952C266.376 5.36574 265.704 5.18885 264.967 5.18885C264.203 5.18885 263.518 5.35919 262.913 5.69987C262.307 6.04055 261.827 6.53847 261.471 7.19363C261.129 7.83568 260.958 8.60221 260.958 9.49323C260.958 10.3711 261.129 11.1442 261.471 11.8125C261.827 12.4676 262.307 12.9721 262.913 13.3259C263.518 13.6666 264.203 13.8369 264.967 13.8369C265.704 13.8369 266.376 13.66 266.981 13.3062C267.6 12.9525 268.087 12.448 268.443 11.7928C268.798 11.1377 268.976 10.3777 268.976 9.51288Z" fill="white"/>
<path d="M275.312 5.30677V11.9697C275.312 12.6249 275.437 13.0769 275.687 13.3259C275.937 13.5749 276.378 13.6993 277.01 13.6993H278.274V14.8786H276.793C275.818 14.8786 275.094 14.6559 274.62 14.2104C274.146 13.7517 273.909 13.0049 273.909 11.9697V5.30677H272.408V4.14715H273.909V1.45445H275.312V4.14715H278.274V5.30677H275.312Z" fill="white"/>
<path d="M285.274 15.0359C284.26 15.0359 283.345 14.8131 282.529 14.3676C281.726 13.909 281.087 13.2669 280.613 12.4414C280.152 11.6028 279.922 10.6266 279.922 9.51288C279.922 8.39912 280.159 7.42948 280.633 6.60398C281.107 5.76538 281.752 5.12333 282.568 4.67782C283.385 4.21921 284.3 3.98991 285.314 3.98991C286.327 3.98991 287.242 4.21921 288.059 4.67782C288.888 5.12333 289.533 5.76538 289.994 6.60398C290.468 7.42948 290.705 8.39912 290.705 9.51288C290.705 10.6135 290.468 11.5832 289.994 12.4218C289.52 13.2604 288.868 13.909 288.039 14.3676C287.21 14.8131 286.288 15.0359 285.274 15.0359ZM285.274 13.8369C285.985 13.8369 286.643 13.6797 287.249 13.3652C287.855 13.0376 288.342 12.5528 288.71 11.9108C289.092 11.2556 289.283 10.4563 289.283 9.51288C289.283 8.56946 289.099 7.77672 288.73 7.13466C288.362 6.4795 287.874 5.99469 287.269 5.68021C286.663 5.35263 286.005 5.18885 285.294 5.18885C284.583 5.18885 283.925 5.35263 283.319 5.68021C282.713 5.99469 282.226 6.4795 281.857 7.13466C281.502 7.77672 281.324 8.56946 281.324 9.51288C281.324 10.4563 281.502 11.2556 281.857 11.9108C282.226 12.5528 282.707 13.0376 283.299 13.3652C283.905 13.6797 284.563 13.8369 285.274 13.8369Z" fill="white"/>
<path d="M294.608 6.05365C294.91 5.38539 295.371 4.86782 295.99 4.50093C296.622 4.13404 297.392 3.9506 298.301 3.9506V5.38539H297.926C296.925 5.38539 296.122 5.65401 295.516 6.19124C294.91 6.72846 294.608 7.62603 294.608 8.88393V14.8786H293.225V4.14715H294.608V6.05365Z" fill="white"/>
<path d="M309.268 4.14715L302.869 19.9299H301.427L303.521 14.8197L299.097 4.14715H300.617L304.291 13.3062L307.846 4.14715H309.268Z" fill="white"/>
<path d="M320.808 5.30677H318.3V14.8786H316.917V5.30677H315.416V4.14715H316.917V3.40027C316.917 2.23409 317.214 1.37583 317.806 0.825498C318.412 0.275166 319.386 0 320.729 0V1.17928C319.834 1.17928 319.202 1.34962 318.833 1.69031C318.478 2.03099 318.3 2.60097 318.3 3.40027V4.14715H320.808V5.30677Z" fill="white"/>
<path d="M327.704 15.0359C326.691 15.0359 325.775 14.8131 324.959 14.3676C324.156 13.909 323.517 13.2669 323.044 12.4414C322.583 11.6028 322.352 10.6266 322.352 9.51288C322.352 8.39912 322.589 7.42948 323.063 6.60398C323.537 5.76538 324.182 5.12333 324.999 4.67782C325.815 4.21921 326.73 3.98991 327.744 3.98991C328.758 3.98991 329.673 4.21921 330.489 4.67782C331.318 5.12333 331.964 5.76538 332.424 6.60398C332.898 7.42948 333.135 8.39912 333.135 9.51288C333.135 10.6135 332.898 11.5832 332.424 12.4218C331.95 13.2604 331.299 13.909 330.469 14.3676C329.64 14.8131 328.718 15.0359 327.704 15.0359ZM327.704 13.8369C328.415 13.8369 329.074 13.6797 329.679 13.3652C330.285 13.0376 330.772 12.5528 331.141 11.9108C331.523 11.2556 331.713 10.4563 331.713 9.51288C331.713 8.56946 331.529 7.77672 331.161 7.13466C330.792 6.4795 330.305 5.99469 329.699 5.68021C329.093 5.35263 328.435 5.18885 327.724 5.18885C327.013 5.18885 326.355 5.35263 325.749 5.68021C325.144 5.99469 324.656 6.4795 324.288 7.13466C323.932 7.77672 323.754 8.56946 323.754 9.51288C323.754 10.4563 323.932 11.2556 324.288 11.9108C324.656 12.5528 325.137 13.0376 325.729 13.3652C326.335 13.6797 326.993 13.8369 327.704 13.8369Z" fill="white"/>
<path d="M337.038 6.05365C337.341 5.38539 337.802 4.86782 338.42 4.50093C339.052 4.13404 339.823 3.9506 340.731 3.9506V5.38539H340.356C339.355 5.38539 338.552 5.65401 337.946 6.19124C337.341 6.72846 337.038 7.62603 337.038 8.88393V14.8786H335.655V4.14715H337.038V6.05365Z" fill="white"/>
<path d="M199.065 30.622V31.762H195.234V44.3607H193.851V31.762H190V30.622H199.065Z" fill="white"/>
<path d="M211.004 38.4446C211.004 38.9163 210.991 39.2767 210.965 39.5256H202.018C202.058 40.338 202.255 41.0325 202.611 41.609C202.966 42.1856 203.433 42.6245 204.013 42.9259C204.592 43.2142 205.224 43.3583 205.909 43.3583C206.804 43.3583 207.555 43.1421 208.16 42.7097C208.779 42.2773 209.187 41.6942 209.385 40.9604H210.846C210.583 42.0087 210.017 42.8669 209.148 43.5352C208.292 44.1904 207.212 44.5179 205.909 44.5179C204.895 44.5179 203.986 44.2952 203.183 43.8497C202.38 43.3911 201.748 42.749 201.287 41.9235C200.84 41.0849 200.616 40.1087 200.616 38.995C200.616 37.8812 200.84 36.905 201.287 36.0664C201.735 35.2278 202.36 34.5858 203.164 34.1402C203.967 33.6947 204.882 33.472 205.909 33.472C206.936 33.472 207.831 33.6947 208.595 34.1402C209.371 34.5858 209.964 35.1885 210.372 35.9485C210.793 36.6954 211.004 37.5274 211.004 38.4446ZM209.602 38.4053C209.615 37.606 209.45 36.9247 209.108 36.3612C208.779 35.7978 208.325 35.3719 207.745 35.0837C207.166 34.7954 206.534 34.6513 205.849 34.6513C204.823 34.6513 203.947 34.9788 203.223 35.634C202.499 36.2892 202.097 37.2129 202.018 38.4053H209.602Z" fill="white"/>
<path d="M212.901 38.995C212.901 37.8812 213.125 36.9116 213.573 36.0861C214.021 35.2475 214.639 34.6054 215.429 34.1599C216.219 33.7013 217.121 33.472 218.135 33.472C219.465 33.472 220.558 33.7996 221.413 34.4547C222.282 35.1099 222.842 36.0009 223.092 37.1278H221.611C221.427 36.3547 221.025 35.7519 220.406 35.3195C219.801 34.874 219.043 34.6513 218.135 34.6513C217.411 34.6513 216.759 34.8151 216.18 35.1426C215.6 35.4702 215.14 35.9616 214.797 36.6167C214.468 37.2588 214.304 38.0515 214.304 38.995C214.304 39.9384 214.468 40.7377 214.797 41.3928C215.14 42.048 215.6 42.5394 216.18 42.8669C216.759 43.1945 217.411 43.3583 218.135 43.3583C219.043 43.3583 219.801 43.1421 220.406 42.7097C221.025 42.2642 221.427 41.6483 221.611 40.8622H223.092C222.842 41.9628 222.282 42.8473 221.413 43.5155C220.544 44.1838 219.452 44.5179 218.135 44.5179C217.121 44.5179 216.219 44.2952 215.429 43.8497C214.639 43.3911 214.021 42.749 213.573 41.9235C213.125 41.0849 212.901 40.1087 212.901 38.995Z" fill="white"/>
<path d="M230.78 33.4327C231.596 33.4327 232.327 33.603 232.972 33.9437C233.631 34.2844 234.144 34.8085 234.513 35.5161C234.895 36.2105 235.086 37.0622 235.086 38.0712V44.3607H233.723V38.2284C233.723 37.0622 233.427 36.1712 232.834 35.5554C232.255 34.9395 231.458 34.6316 230.444 34.6316C229.404 34.6316 228.575 34.9592 227.956 35.6143C227.337 36.2695 227.028 37.2326 227.028 38.5036V44.3607H225.645V29.8162H227.028V35.4571C227.37 34.8151 227.87 34.3171 228.529 33.9633C229.2 33.6096 229.951 33.4327 230.78 33.4327Z" fill="white"/>
<path d="M243.199 33.4327C244.489 33.4327 245.542 33.8323 246.359 34.6316C247.175 35.4178 247.583 36.5643 247.583 38.0712V44.3607H246.22V38.2284C246.22 37.0622 245.924 36.1712 245.332 35.5554C244.752 34.9395 243.956 34.6316 242.942 34.6316C241.902 34.6316 241.072 34.9592 240.454 35.6143C239.835 36.2695 239.525 37.2326 239.525 38.5036V44.3607H238.143V33.6292H239.525V35.4571C239.868 34.8019 240.361 34.304 241.007 33.9633C241.652 33.6096 242.382 33.4327 243.199 33.4327Z" fill="white"/>
<path d="M255.361 44.5179C254.347 44.5179 253.432 44.2952 252.616 43.8497C251.812 43.3911 251.174 42.749 250.7 41.9235C250.239 41.0849 250.009 40.1087 250.009 38.995C250.009 37.8812 250.246 36.9116 250.72 36.0861C251.194 35.2475 251.839 34.6054 252.655 34.1599C253.471 33.7013 254.386 33.472 255.4 33.472C256.414 33.472 257.329 33.7013 258.145 34.1599C258.975 34.6054 259.62 35.2475 260.081 36.0861C260.555 36.9116 260.792 37.8812 260.792 38.995C260.792 40.0956 260.555 41.0653 260.081 41.9039C259.607 42.7425 258.955 43.3911 258.126 43.8497C257.296 44.2952 256.375 44.5179 255.361 44.5179ZM255.361 43.319C256.072 43.319 256.73 43.1618 257.336 42.8473C257.941 42.5197 258.428 42.0349 258.797 41.3928C259.179 40.7377 259.37 39.9384 259.37 38.995C259.37 38.0515 259.186 37.2588 258.817 36.6167C258.448 35.9616 257.961 35.4768 257.355 35.1623C256.75 34.8347 256.091 34.6709 255.38 34.6709C254.669 34.6709 254.011 34.8347 253.406 35.1623C252.8 35.4768 252.313 35.9616 251.944 36.6167C251.589 37.2588 251.411 38.0515 251.411 38.995C251.411 39.9384 251.589 40.7377 251.944 41.3928C252.313 42.0349 252.793 42.5197 253.386 42.8473C253.991 43.1618 254.65 43.319 255.361 43.319Z" fill="white"/>
<path d="M264.694 29.8162V44.3607H263.312V29.8162H264.694Z" fill="white"/>
<path d="M272.545 44.5179C271.531 44.5179 270.616 44.2952 269.8 43.8497C268.997 43.3911 268.358 42.749 267.884 41.9235C267.423 41.0849 267.193 40.1087 267.193 38.995C267.193 37.8812 267.43 36.9116 267.904 36.0861C268.378 35.2475 269.023 34.6054 269.839 34.1599C270.656 33.7013 271.571 33.472 272.584 33.472C273.598 33.472 274.513 33.7013 275.33 34.1599C276.159 34.6054 276.804 35.2475 277.265 36.0861C277.739 36.9116 277.976 37.8812 277.976 38.995C277.976 40.0956 277.739 41.0653 277.265 41.9039C276.791 42.7425 276.139 43.3911 275.31 43.8497C274.48 44.2952 273.559 44.5179 272.545 44.5179ZM272.545 43.319C273.256 43.319 273.914 43.1618 274.52 42.8473C275.126 42.5197 275.613 42.0349 275.981 41.3928C276.363 40.7377 276.554 39.9384 276.554 38.995C276.554 38.0515 276.37 37.2588 276.001 36.6167C275.632 35.9616 275.145 35.4768 274.54 35.1623C273.934 34.8347 273.276 34.6709 272.565 34.6709C271.854 34.6709 271.195 34.8347 270.59 35.1623C269.984 35.4768 269.497 35.9616 269.128 36.6167C268.773 37.2588 268.595 38.0515 268.595 38.995C268.595 39.9384 268.773 40.7377 269.128 41.3928C269.497 42.0349 269.978 42.5197 270.57 42.8473C271.176 43.1618 271.834 43.319 272.545 43.319Z" fill="white"/>
<path d="M285.019 33.472C286.033 33.472 286.915 33.7078 287.665 34.1796C288.416 34.6513 288.955 35.2475 289.285 35.9681V33.6292H290.667V44.6359C290.667 45.6186 290.45 46.49 290.015 47.2499C289.594 48.0099 289.002 48.593 288.238 48.9992C287.474 49.4185 286.605 49.6282 285.631 49.6282C284.248 49.6282 283.096 49.3006 282.175 48.6454C281.266 47.9903 280.7 47.0993 280.476 45.9724H281.839C282.076 46.7193 282.524 47.3155 283.182 47.761C283.853 48.2065 284.67 48.4292 285.631 48.4292C286.329 48.4292 286.954 48.2785 287.507 47.9772C288.06 47.6889 288.495 47.2565 288.811 46.68C289.127 46.1034 289.285 45.422 289.285 44.6359V41.9825C288.942 42.7163 288.396 43.3255 287.645 43.8104C286.908 44.2821 286.033 44.5179 285.019 44.5179C284.031 44.5179 283.143 44.2886 282.353 43.83C281.576 43.3714 280.964 42.7228 280.516 41.8842C280.081 41.0456 279.864 40.076 279.864 38.9753C279.864 37.8746 280.081 36.9116 280.516 36.0861C280.964 35.2475 281.576 34.6054 282.353 34.1599C283.143 33.7013 284.031 33.472 285.019 33.472ZM289.285 38.995C289.285 38.1301 289.107 37.3702 288.751 36.715C288.396 36.0599 287.909 35.5554 287.29 35.2016C286.684 34.8478 286.013 34.6709 285.275 34.6709C284.512 34.6709 283.827 34.8413 283.222 35.1819C282.616 35.5226 282.135 36.0205 281.78 36.6757C281.437 37.3178 281.266 38.0843 281.266 38.9753C281.266 39.8532 281.437 40.6263 281.78 41.2946C282.135 41.9497 282.616 42.4542 283.222 42.808C283.827 43.1487 284.512 43.319 285.275 43.319C286.013 43.319 286.684 43.1421 287.29 42.7883C287.909 42.4345 288.396 41.9301 288.751 41.2749C289.107 40.6197 289.285 39.8598 289.285 38.995Z" fill="white"/>
<path d="M302.71 33.6292L296.311 49.412H294.87L296.963 44.3017L292.539 33.6292H294.06L297.733 42.7883L301.288 33.6292H302.71Z" fill="white"/>
<path d="M309.372 38.9753C309.372 37.8746 309.59 36.9116 310.024 36.0861C310.472 35.2475 311.084 34.6054 311.861 34.1599C312.651 33.7013 313.54 33.472 314.527 33.472C315.554 33.472 316.436 33.7078 317.173 34.1796C317.924 34.6513 318.464 35.254 318.793 35.9878V33.6292H320.175V44.3607H318.793V41.9825C318.451 42.7163 317.904 43.3255 317.154 43.8104C316.416 44.2821 315.534 44.5179 314.507 44.5179C313.533 44.5179 312.651 44.2886 311.861 43.83C311.084 43.3714 310.472 42.7228 310.024 41.8842C309.59 41.0456 309.372 40.076 309.372 38.9753ZM318.793 38.995C318.793 38.1301 318.615 37.3702 318.26 36.715C317.904 36.0599 317.417 35.5554 316.798 35.2016C316.193 34.8478 315.521 34.6709 314.784 34.6709C314.02 34.6709 313.336 34.8413 312.73 35.1819C312.124 35.5226 311.644 36.0205 311.288 36.6757C310.946 37.3178 310.775 38.0843 310.775 38.9753C310.775 39.8532 310.946 40.6263 311.288 41.2946C311.644 41.9497 312.124 42.4542 312.73 42.808C313.336 43.1487 314.02 43.319 314.784 43.319C315.521 43.319 316.193 43.1421 316.798 42.7883C317.417 42.4345 317.904 41.9301 318.26 41.2749C318.615 40.6197 318.793 39.8598 318.793 38.995Z" fill="white"/>
<path d="M328.387 33.4327C329.678 33.4327 330.731 33.8323 331.547 34.6316C332.363 35.4178 332.772 36.5643 332.772 38.0712V44.3607H331.409V38.2284C331.409 37.0622 331.113 36.1712 330.52 35.5554C329.941 34.9395 329.144 34.6316 328.131 34.6316C327.09 34.6316 326.261 34.9592 325.642 35.6143C325.023 36.2695 324.714 37.2326 324.714 38.5036V44.3607H323.331V33.6292H324.714V35.4571C325.056 34.8019 325.55 34.304 326.195 33.9633C326.84 33.6096 327.571 33.4327 328.387 33.4327Z" fill="white"/>
<path d="M335.197 38.9753C335.197 37.8746 335.421 36.9116 335.869 36.0861C336.316 35.2475 336.928 34.6054 337.705 34.1599C338.495 33.7013 339.384 33.472 340.371 33.472C341.319 33.472 342.175 33.7013 342.939 34.1599C343.702 34.6185 344.262 35.2147 344.618 35.9485V29.8162H346V44.3607H344.618V41.9628C344.288 42.7097 343.749 43.3255 342.998 43.8104C342.248 44.2821 341.365 44.5179 340.352 44.5179C339.364 44.5179 338.475 44.2886 337.686 43.83C336.909 43.3714 336.296 42.7228 335.849 41.8842C335.414 41.0456 335.197 40.076 335.197 38.9753ZM344.618 38.995C344.618 38.1301 344.44 37.3702 344.084 36.715C343.729 36.0599 343.242 35.5554 342.623 35.2016C342.017 34.8478 341.346 34.6709 340.608 34.6709C339.845 34.6709 339.16 34.8413 338.554 35.1819C337.949 35.5226 337.468 36.0205 337.113 36.6757C336.77 37.3178 336.599 38.0843 336.599 38.9753C336.599 39.8532 336.77 40.6263 337.113 41.2946C337.468 41.9497 337.949 42.4542 338.554 42.808C339.16 43.1487 339.845 43.319 340.608 43.319C341.346 43.319 342.017 43.1421 342.623 42.7883C343.242 42.4345 343.729 41.9301 344.084 41.2749C344.44 40.6197 344.618 39.8598 344.618 38.995Z" fill="white"/>
<path d="M192.37 60.1041V73.8428H190.987V60.1041H192.37Z" fill="white"/>
<path d="M200.556 62.9147C201.847 62.9147 202.9 63.3144 203.716 64.1137C204.533 64.8999 204.941 66.0464 204.941 67.5533V73.8428H203.578V67.7105C203.578 66.5443 203.282 65.6533 202.689 65.0375C202.11 64.4216 201.313 64.1137 200.3 64.1137C199.259 64.1137 198.43 64.4413 197.811 65.0964C197.192 65.7516 196.883 66.7147 196.883 67.9857V73.8428H195.501V63.1113H196.883V64.9392C197.225 64.284 197.719 63.7861 198.364 63.4454C199.009 63.0916 199.74 62.9147 200.556 62.9147Z" fill="white"/>
<path d="M213.054 62.9147C214.344 62.9147 215.398 63.3144 216.214 64.1137C217.03 64.8999 217.438 66.0464 217.438 67.5533V73.8428H216.076V67.7105C216.076 66.5443 215.779 65.6533 215.187 65.0375C214.608 64.4216 213.811 64.1137 212.797 64.1137C211.757 64.1137 210.928 64.4413 210.309 65.0964C209.69 65.7516 209.381 66.7147 209.381 67.9857V73.8428H207.998V63.1113H209.381V64.9392C209.723 64.284 210.217 63.7861 210.862 63.4454C211.507 63.0916 212.238 62.9147 213.054 62.9147Z" fill="white"/>
<path d="M225.216 74C224.202 74 223.287 73.7773 222.471 73.3317C221.668 72.8731 221.029 72.2311 220.555 71.4056C220.094 70.567 219.864 69.5908 219.864 68.477C219.864 67.3633 220.101 66.3936 220.575 65.5681C221.049 64.7295 221.694 64.0875 222.51 63.642C223.327 63.1834 224.242 62.9541 225.255 62.9541C226.269 62.9541 227.184 63.1834 228.001 63.642C228.83 64.0875 229.475 64.7295 229.936 65.5681C230.41 66.3936 230.647 67.3633 230.647 68.477C230.647 69.5777 230.41 70.5473 229.936 71.3859C229.462 72.2245 228.81 72.8731 227.981 73.3317C227.151 73.7773 226.23 74 225.216 74ZM225.216 72.8011C225.927 72.8011 226.585 72.6438 227.191 72.3294C227.796 72.0018 228.284 71.517 228.652 70.8749C229.034 70.2197 229.225 69.4205 229.225 68.477C229.225 67.5336 229.041 66.7409 228.672 66.0988C228.303 65.4436 227.816 64.9588 227.211 64.6444C226.605 64.3168 225.947 64.153 225.236 64.153C224.525 64.153 223.866 64.3168 223.261 64.6444C222.655 64.9588 222.168 65.4436 221.799 66.0988C221.444 66.7409 221.266 67.5336 221.266 68.477C221.266 69.4205 221.444 70.2197 221.799 70.8749C222.168 71.517 222.648 72.0018 223.241 72.3294C223.847 72.6438 224.505 72.8011 225.216 72.8011Z" fill="white"/>
<path d="M236.998 72.5062L240.632 63.1113H242.094L237.769 73.8428H236.208L231.883 63.1113H233.365L236.998 72.5062Z" fill="white"/>
<path d="M243.335 68.4574C243.335 67.3567 243.553 66.3936 243.987 65.5681C244.435 64.7295 245.047 64.0875 245.824 63.642C246.614 63.1834 247.503 62.9541 248.49 62.9541C249.517 62.9541 250.399 63.1899 251.137 63.6616C251.887 64.1333 252.427 64.7361 252.756 65.4699V63.1113H254.138V73.8428H252.756V71.4645C252.414 72.1983 251.867 72.8076 251.117 73.2924C250.379 73.7642 249.497 74 248.47 74C247.496 74 246.614 73.7707 245.824 73.3121C245.047 72.8535 244.435 72.2049 243.987 71.3663C243.553 70.5277 243.335 69.558 243.335 68.4574ZM252.756 68.477C252.756 67.6122 252.578 66.8522 252.223 66.1971C251.867 65.5419 251.38 65.0375 250.761 64.6837C250.156 64.3299 249.484 64.153 248.747 64.153C247.983 64.153 247.299 64.3233 246.693 64.664C246.087 65.0047 245.607 65.5026 245.251 66.1578C244.909 66.7998 244.738 67.5664 244.738 68.4574C244.738 69.3353 244.909 70.1084 245.251 70.7766C245.607 71.4318 246.087 71.9363 246.693 72.29C247.299 72.6307 247.983 72.8011 248.747 72.8011C249.484 72.8011 250.156 72.6242 250.761 72.2704C251.38 71.9166 251.867 71.4121 252.223 70.757C252.578 70.1018 252.756 69.3418 252.756 68.477Z" fill="white"/>
<path d="M259.092 64.2709V70.9339C259.092 71.589 259.217 72.0411 259.467 72.29C259.717 72.539 260.158 72.6635 260.79 72.6635H262.054V73.8428H260.573C259.599 73.8428 258.874 73.62 258.4 73.1745C257.926 72.7159 257.689 71.969 257.689 70.9339V64.2709H256.188V63.1113H257.689V60.4186H259.092V63.1113H262.054V64.2709H259.092Z" fill="white"/>
<path d="M265.025 61.0869C264.749 61.0869 264.512 60.9886 264.314 60.792C264.117 60.5955 264.018 60.3531 264.018 60.0648C264.018 59.7765 264.117 59.5407 264.314 59.3572C264.512 59.1607 264.749 59.0624 265.025 59.0624C265.302 59.0624 265.539 59.1607 265.736 59.3572C265.934 59.5407 266.032 59.7765 266.032 60.0648C266.032 60.3531 265.934 60.5955 265.736 60.792C265.539 60.9886 265.302 61.0869 265.025 61.0869ZM265.716 63.1113V73.8428H264.334V63.1113H265.716Z" fill="white"/>
<path d="M273.567 74C272.553 74 271.638 73.7773 270.822 73.3317C270.019 72.8731 269.38 72.2311 268.906 71.4056C268.445 70.567 268.215 69.5908 268.215 68.477C268.215 67.3633 268.452 66.3936 268.926 65.5681C269.4 64.7295 270.045 64.0875 270.861 63.642C271.678 63.1834 272.593 62.9541 273.607 62.9541C274.62 62.9541 275.536 63.1834 276.352 63.642C277.181 64.0875 277.826 64.7295 278.287 65.5681C278.761 66.3936 278.998 67.3633 278.998 68.477C278.998 69.5777 278.761 70.5473 278.287 71.3859C277.813 72.2245 277.162 72.8731 276.332 73.3317C275.503 73.7773 274.581 74 273.567 74ZM273.567 72.8011C274.278 72.8011 274.936 72.6438 275.542 72.3294C276.148 72.0018 276.635 71.517 277.004 70.8749C277.385 70.2197 277.576 69.4205 277.576 68.477C277.576 67.5336 277.392 66.7409 277.023 66.0988C276.655 65.4436 276.167 64.9588 275.562 64.6444C274.956 64.3168 274.298 64.153 273.587 64.153C272.876 64.153 272.218 64.3168 271.612 64.6444C271.006 64.9588 270.519 65.4436 270.151 66.0988C269.795 66.7409 269.617 67.5336 269.617 68.477C269.617 69.4205 269.795 70.2197 270.151 70.8749C270.519 71.517 271 72.0018 271.592 72.3294C272.198 72.6438 272.856 72.8011 273.567 72.8011Z" fill="white"/>
<path d="M286.574 62.9147C287.864 62.9147 288.918 63.3144 289.734 64.1137C290.55 64.8999 290.958 66.0464 290.958 67.5533V73.8428H289.596V67.7105C289.596 66.5443 289.3 65.6533 288.707 65.0375C288.128 64.4216 287.331 64.1137 286.317 64.1137C285.277 64.1137 284.448 64.4413 283.829 65.0964C283.21 65.7516 282.901 66.7147 282.901 67.9857V73.8428H281.518V63.1113H282.901V64.9392C283.243 64.284 283.737 63.7861 284.382 63.4454C285.027 63.0916 285.758 62.9147 286.574 62.9147Z" fill="white"/>
</svg>
